<?xml version="1.0" encoding="UTF-8"?>
<!DOCTYPE svg PUBLIC "-//W3C//DTD SVG 1.1//EN" "http://www.w3.org/Graphics/SVG/1.1/DTD/svg11.dtd">
<!-- Creator: CorelDRAW -->
<svg xmlns="http://www.w3.org/2000/svg" xml:space="preserve" width="4in" height="2in" version="1.1" style="shape-rendering:geometricPrecision; text-rendering:geometricPrecision; image-rendering:optimizeQuality; fill-rule:evenodd; clip-rule:evenodd"
viewBox="0 0 4000 2000"
 xmlns:xlink="http://www.w3.org/1999/xlink"
 xmlns:xodm="http://www.corel.com/coreldraw/odm/2003">
 <defs>
  <style type="text/css">
   <![CDATA[
    .str0 {stroke:#373435;stroke-width:3.94;stroke-miterlimit:2.61313}
    .fil0 {fill:none}
    .fil2 {fill:#23BCB2}
    .fil1 {fill:#14A8C9}
    .fil5 {fill:#373435;fill-rule:nonzero}
    .fil3 {fill:#23BCB2;fill-rule:nonzero}
    .fil4 {fill:#14A8C9;fill-rule:nonzero}
   ]]>
  </style>
 </defs>
 <g id="Layer_x0020_1">
  <metadata id="CorelCorpID_0Corel-Layer"/>
  <polygon class="fil0" points="-0,0 4000,0 4000,2000 -0,2000 "/>
  <g id="_1762845833408">
   <path class="fil1" d="M565.3 1023.25c-2.33,25.09 -0.33,61.14 -0.35,87.47 -0.01,39.27 -3.17,50.42 38.93,50.2l130.59 -0.02c15.26,-0 31.55,-2.8 41.24,4.86 5.71,14.77 -0.07,153.16 1.77,183.34 2.04,33.6 37.98,24.71 66.96,24.71l185.57 0c30.09,0 66.98,9 69.13,-24.67 1.92,-29.98 -3.99,-168.37 1.89,-183.15 6.17,-8.68 69.02,-5.06 82.47,-5.18 128.07,-1.13 128.23,12.49 128.25,-47.8 0,-29.44 0.92,-60.45 -0.1,-89.68l-217.63 -0.84c-15.91,62.28 -61.15,55.51 -69.3,-33.72 -14.61,26 -19.09,176.83 -46.31,194.05 -24.39,15.43 -36.71,-14.06 -42.47,-32.87 -15.84,-51.72 -31.77,-173.63 -43.24,-238.57l-7.01 -34.75c-21.03,42.1 4.98,140.04 -87.35,145.6 -62.32,3.76 -185.76,-4.26 -233.02,1.02z"/>
   <path class="fil2" d="M566.78 983.24c11.93,3 209.57,2.68 231.58,0.51 19.39,-1.92 26.69,-6.73 31.58,-24.99 14.22,-53.2 21.61,-178.61 49.42,-187.12 41.85,-12.8 41.63,77.64 50.1,127.58l25.26 151.59c1.52,8.43 5.96,41.4 11.22,49.32 4.46,-31.5 10.29,-63.81 15.3,-95.39 5.79,-36.5 9.07,-125.11 37.72,-130.29 40.78,-7.37 35.42,86.05 44.6,115.04l3.11 7.07c14.99,-14.28 26.59,-12.69 52.69,-12.38 42.85,0.5 162.85,2.26 192.18,-0.31 0.59,-29.32 0.07,-59.12 0.07,-88.5 0,-38.4 6.65,-56.1 -36.46,-55.96 -30.58,0.09 -61.09,0.06 -91.65,0.04 -15.45,-0.01 -30.7,-0.01 -45.81,0.09 -13.43,0.09 -32.91,5.45 -37.56,-7.19 -5.35,-14.56 1.58,-151.73 -1.07,-182.21 -2.76,-31.76 -38.7,-23.56 -69.05,-23.59 -52.46,-0.05 -182.35,-2.37 -226.94,-0.09 -38.56,1.97 -25.48,51.32 -25.48,113.13 0,118.43 20.63,99.87 -82.04,99.87 -156.69,0 -129.42,-19.8 -130.7,122.38l1.94 21.4z"/>
   <path class="fil2" d="M1140.42 637.77c-1.31,3.7 -4.32,26.54 2.44,30.14 10.94,1.23 18.27,0.93 29.46,2.86 24.91,4.3 48.64,17.91 64.84,35.31 16.61,17.85 28.56,42.05 31.72,68.69 2.73,22.92 -4.48,33.61 26.23,29.08 8.15,-1.2 7.69,-7.47 7.59,-15.09 -0.19,-15.63 -2.39,-26.89 -5.75,-40.78 -10.91,-45.13 -42.22,-78.91 -82.73,-98.37 -14.35,-6.89 -56.96,-19.23 -73.8,-11.83z"/>
   <path class="fil2" d="M1205.72 802.86c4.87,1.69 16.47,2.94 22.5,1.15 16.85,-4.98 2.86,-85.25 -61.45,-97.3 -27.6,-5.17 -28.11,0.81 -27.94,16.57 0.3,27.41 35.97,0.44 56.94,40.9 7.35,14.19 5.19,29.97 9.96,38.68z"/>
   <path class="fil2" d="M1139.48 777.74c-1.38,9.02 -2.54,23.29 4.58,25.59 7.79,2.51 21.93,1.98 24.51,-4.66 2.46,-6.34 1.78,-21.76 -3.81,-24.23 -4.31,-1.91 -17.87,-2.45 -25.28,3.3z"/>
   <path class="fil1" d="M735.3 1364.31c1.3,-3.7 4.31,-26.54 -2.44,-30.14 -10.94,-1.23 -18.28,-0.93 -29.47,-2.86 -24.91,-4.3 -48.64,-17.91 -64.83,-35.31 -16.61,-17.85 -28.56,-42.05 -31.72,-68.69 -2.74,-22.92 4.48,-33.61 -26.23,-29.08 -8.16,1.2 -7.69,7.47 -7.59,15.09 0.2,15.63 2.39,26.89 5.76,40.78 10.91,45.13 42.21,78.91 82.72,98.38 14.34,6.89 56.97,19.22 73.81,11.82z"/>
   <path class="fil1" d="M670 1199.22c-4.86,-1.69 -16.46,-2.94 -22.5,-1.16 -16.84,4.98 -2.85,85.26 61.46,97.3 27.6,5.17 28.11,-0.81 27.94,-16.56 -0.3,-27.41 -35.96,-0.45 -56.93,-40.9 -7.35,-14.19 -5.19,-29.97 -9.96,-38.68z"/>
   <path class="fil1" d="M736.24 1224.33c1.37,-9.02 2.53,-23.29 -4.58,-25.59 -7.79,-2.51 -21.92,-1.98 -24.51,4.66 -2.46,6.34 -1.78,21.76 3.8,24.23 4.31,1.91 17.87,2.45 25.29,-3.3z"/>
   <g>
    <path class="fil3" d="M1670.52 1014.81c2.26,-41.53 -6.48,-76.31 -26.4,-104.32 -20.27,-28.47 -52.25,-43.07 -95.85,-43.78 -41.44,0.71 -72.44,16.04 -93.06,45.94 -20.54,29.54 -30.45,64.23 -29.56,104.23 -0.35,39.19 9.83,72.16 30.63,98.92 20.63,26.94 51.26,40.81 91.89,41.71 67.83,-0.9 107.83,-34.32 120.18,-100.44l-20.55 0c-11.8,54.41 -44.95,81.89 -99.45,82.61 -34.15,-0.37 -59.64,-13.15 -76.57,-38.29 -17.39,-24.23 -25.95,-53.15 -25.59,-86.57l224.32 0zm-224.32 -17.84c2.61,-28.65 12.61,-54.41 29.82,-77.03 17.29,-22.7 41.35,-34.5 72.34,-35.4 32.15,0.9 57.12,12.25 74.68,34.06 17.3,21.98 26.21,48.1 26.94,78.37l-203.78 0zm381.7 17.3l0 -20.54 -115.85 0 0 20.54 115.85 0z"/>
    <path class="fil4" d="M1884.04 871.57l58.37 0 0 38.92 1.63 0c4.68,-6.85 9.72,-13.16 15.13,-18.92 5.41,-5.77 11.45,-10.63 18.11,-14.59 6.67,-3.96 14.32,-7.12 22.97,-9.46 8.65,-2.35 18.56,-3.52 29.73,-3.52 16.94,0 32.71,3.78 47.3,11.35 14.6,7.57 24.96,19.28 31.09,35.14 10.44,-14.41 22.51,-25.76 36.21,-34.06 13.7,-8.29 30.81,-12.43 51.35,-12.43 29.55,0 52.52,7.21 68.93,21.62 16.4,14.42 24.59,38.56 24.59,72.43l0 192.96 -61.62 0 0 -163.24c0,-11.18 -0.36,-21.35 -1.08,-30.54 -0.72,-9.19 -2.79,-17.12 -6.22,-23.79 -3.43,-6.66 -8.56,-11.8 -15.4,-15.4 -6.85,-3.6 -16.22,-5.4 -28.11,-5.4 -20.9,0 -36.04,6.48 -45.41,19.46 -9.37,12.97 -14.05,31.35 -14.05,55.13l0 163.78 -61.62 0 0 -179.45c0,-19.46 -3.52,-34.15 -10.54,-44.06 -7.03,-9.91 -19.91,-14.86 -38.65,-14.86 -7.93,0 -15.58,1.61 -22.97,4.86 -7.38,3.24 -13.87,7.93 -19.46,14.06 -5.58,6.12 -10.09,13.69 -13.51,22.7 -3.43,9 -5.13,19.28 -5.13,30.81l0 165.94 -61.62 0 0 -279.45zm648.62 115.13c-0.72,-9.73 -2.8,-19.1 -6.22,-28.11 -3.43,-9.01 -8.11,-16.85 -14.05,-23.51 -5.95,-6.67 -13.16,-12.07 -21.63,-16.22 -8.47,-4.15 -17.93,-6.21 -28.38,-6.21 -10.81,0 -20.63,1.89 -29.46,5.67 -8.83,3.78 -16.39,9.01 -22.7,15.67 -6.3,6.67 -11.35,14.51 -15.13,23.52 -3.79,9.01 -5.86,18.74 -6.21,29.19l143.78 0zm-143.78 40.54c0,10.8 1.53,21.26 4.59,31.35 3.07,10.09 7.66,18.92 13.79,26.49 6.13,7.57 13.87,13.6 23.24,18.11 9.37,4.5 20.55,6.76 33.51,6.76 18.02,0 32.52,-3.87 43.51,-11.62 10.99,-7.74 19.2,-19.37 24.6,-34.86l58.38 0c-3.24,15.13 -8.83,28.65 -16.76,40.54 -7.93,11.89 -17.48,21.89 -28.65,30 -11.17,8.1 -23.69,14.23 -37.57,18.38 -13.87,4.14 -28.37,6.22 -43.51,6.22 -21.98,0 -41.44,-3.61 -58.37,-10.82 -16.93,-7.2 -31.26,-17.29 -42.97,-30.27 -11.71,-12.97 -20.54,-28.46 -26.49,-46.48 -5.94,-18.02 -8.92,-37.83 -8.92,-59.46 0,-19.81 3.15,-38.65 9.46,-56.48 6.31,-17.84 15.31,-33.52 27.02,-47.03 11.71,-13.51 25.86,-24.23 42.43,-32.16 16.58,-7.93 35.32,-11.89 56.22,-11.89 21.98,0 41.7,4.59 59.19,13.79 17.48,9.19 31.98,21.35 43.51,36.48 11.53,15.14 19.91,32.53 25.14,52.16 5.22,19.64 6.57,39.91 4.05,60.81l-205.39 0zm502.14 123.78l-58.38 0 0 -37.83 -1.07 0c-8.3,16.21 -20.37,27.84 -36.22,34.86 -15.85,7.03 -32.61,10.55 -50.27,10.55 -21.98,0 -41.17,-3.88 -57.56,-11.62 -16.39,-7.75 -30,-18.29 -40.81,-31.63 -10.81,-13.33 -18.91,-29.09 -24.32,-47.29 -5.4,-18.2 -8.11,-37.75 -8.11,-58.65 0,-25.22 3.43,-47.02 10.27,-65.41 6.85,-18.38 15.95,-33.51 27.3,-45.4 11.35,-11.89 24.33,-20.63 38.91,-26.22 14.6,-5.58 29.46,-8.38 44.6,-8.38 8.65,0 17.48,0.81 26.48,2.43 9,1.62 17.66,4.24 25.95,7.83 8.29,3.61 15.94,8.2 22.98,13.79 7.02,5.59 12.88,12.17 17.56,19.73l1.08 0 0 -142.7 61.62 0 0 385.94zm-215.13 -136.75c0,11.89 1.53,23.6 4.6,35.14 3.07,11.53 7.74,21.8 14.05,30.81 6.3,9.01 14.33,16.22 24.06,21.62 9.73,5.41 21.26,8.11 34.59,8.11 13.69,0 25.5,-2.88 35.41,-8.65 9.91,-5.77 18.01,-13.34 24.33,-22.7 6.3,-9.37 10.99,-19.91 14.05,-31.62 3.06,-11.71 4.6,-23.69 4.6,-35.94 0,-30.98 -6.94,-55.13 -20.81,-72.43 -13.88,-17.3 -32.71,-25.94 -56.48,-25.94 -14.42,0 -26.58,2.97 -36.49,8.91 -9.91,5.94 -18.02,13.7 -24.33,23.25 -6.3,9.55 -10.81,20.36 -13.51,32.43 -2.71,12.06 -4.06,24.41 -4.06,37.02zm270.25 -249.19l61.62 0 0 58.38 -61.62 0 0 -58.38zm0 106.48l61.62 0 0 279.45 -61.62 0 0 -279.45zm190.26 132.44l-96.76 -132.44 74.59 0 58.38 85.95 61.08 -85.95 71.35 0 -95.14 129.19 107.03 150.26 -74.06 0 -70.81 -103.24 -68.65 103.24 -72.44 0 105.41 -147.02z"/>
   </g>
   <path class="fil3" d="M1550.99 1375.01c-14.23,0 -26.17,-3.15 -35.81,-9.44 -9.65,-6.3 -16.45,-14.84 -20.42,-25.65l26.06 -15.19c2.74,6.84 6.6,11.9 11.59,15.19 5,3.28 11.46,4.93 19.39,4.93 6.43,0 11.39,-1.5 14.88,-4.51 3.49,-3.01 5.23,-6.36 5.23,-10.06 0,-2.74 -0.82,-5.06 -2.46,-6.98 -1.64,-1.91 -4.44,-3.73 -8.41,-5.44 -3.97,-1.71 -9.71,-3.66 -17.24,-5.85 -13.13,-3.83 -23.6,-9.03 -31.4,-15.6 -7.8,-6.57 -11.7,-15.94 -11.7,-28.11 0,-8.62 2.16,-16.11 6.46,-22.47 4.31,-6.36 10.06,-11.26 17.24,-14.67 7.18,-3.42 14.94,-5.13 23.29,-5.13 11.63,0 21.82,2.77 30.57,8.31 8.76,5.54 15.6,13.37 20.52,23.5l-26.68 15.19c-2.6,-5.74 -5.88,-9.95 -9.85,-12.62 -3.97,-2.67 -8.83,-4 -14.57,-4 -4.38,0 -8.14,1.2 -11.29,3.59 -3.15,2.39 -4.72,5.17 -4.72,8.31 0,2.6 0.65,4.82 1.95,6.67 1.3,1.85 3.69,3.59 7.19,5.23 3.49,1.64 8.65,3.49 15.49,5.54 9.17,2.87 17.07,6.05 23.7,9.54 6.64,3.49 12.11,8.24 16.42,14.26 4.31,6.02 6.46,13.54 6.46,22.57 0,8.62 -2.26,16.18 -6.77,22.67 -4.52,6.5 -10.7,11.49 -18.57,14.98 -7.87,3.49 -16.72,5.24 -26.57,5.24zm182.84 -146.11l0 -0.2 30.78 0 0 143.65 -30.78 0 0 -87.01 -36.53 61.15 -7.59 0 -36.73 -61.36 0 87.22 -30.78 0 0 -143.65 30.78 0 0 0.2 0.41 -0.2 40.02 67.31 40.02 -67.31 0.41 0.2zm181.82 143.44l-32.83 0 -10.06 -27.09 -53.15 0 -10.06 27.09 -33.04 0 53.15 -143.65 33.04 0 52.94 143.65zm-69.36 -98.91l-16.01 42.69 31.81 0 -15.8 -42.69zm159.04 98.91l-26.68 -48.02 -21.96 0 0 48.02 -30.78 0 0 -143.65 59.31 0c8.76,0 16.8,2.12 24.11,6.36 7.32,4.24 13.13,10.02 17.44,17.34 4.31,7.32 6.46,15.35 6.46,24.11 0,8.62 -2.09,16.56 -6.26,23.8 -4.17,7.25 -9.82,13 -16.93,17.24l30.78 54.79 -35.5 0zm-48.63 -114.3l0 36.94 28.52 0c5.06,0 9.44,-1.81 13.13,-5.44 3.69,-3.63 5.54,-7.97 5.54,-13.03 0,-5.06 -1.81,-9.41 -5.44,-13.03 -3.63,-3.63 -8.04,-5.44 -13.24,-5.44l-28.52 0zm193.11 -29.35l0 29.14 -37.96 0 0 114.51 -30.98 0 0 -114.51 -37.76 0 0 -29.14 106.71 0zm122.72 0c8.76,0 16.76,2.12 24.01,6.36 7.25,4.24 13.03,10.02 17.34,17.34 4.31,7.32 6.46,15.35 6.46,24.11 0,8.62 -2.16,16.59 -6.46,23.91 -4.31,7.32 -10.13,13.13 -17.44,17.44 -7.32,4.31 -15.29,6.46 -23.91,6.46l-22.78 0 0 48.02 -30.78 0 0 -143.65 53.56 0zm0 66.28c5.06,0 9.41,-1.81 13.03,-5.44 3.63,-3.63 5.44,-7.97 5.44,-13.03 0,-5.2 -1.78,-9.57 -5.33,-13.13 -3.56,-3.56 -7.94,-5.33 -13.13,-5.33l-22.78 0 0 36.94 22.78 0zm155.96 -10.87l0 -55.41 30.78 0 0 143.65 -30.78 0 0 -58.9 -61.97 0 0 58.9 -30.78 0 0 -143.65 30.78 0 0 55.41 61.97 0zm180.18 88.24l-32.83 0 -10.06 -27.09 -53.15 0 -10.06 27.09 -33.04 0 53.15 -143.65 33.04 0 52.94 143.65zm-69.36 -98.91l-16.01 42.69 31.81 0 -15.8 -42.69zm159.04 98.91l-26.68 -48.02 -21.96 0 0 48.02 -30.78 0 0 -143.65 59.31 0c8.76,0 16.8,2.12 24.11,6.36 7.32,4.24 13.13,10.02 17.44,17.34 4.31,7.32 6.46,15.35 6.46,24.11 0,8.62 -2.09,16.56 -6.26,23.8 -4.17,7.25 -9.82,13 -16.93,17.24l30.78 54.79 -35.5 0zm-48.63 -114.3l0 36.94 28.52 0c5.06,0 9.44,-1.81 13.13,-5.44 3.69,-3.63 5.54,-7.97 5.54,-13.03 0,-5.06 -1.81,-9.41 -5.44,-13.03 -3.63,-3.63 -8.04,-5.44 -13.24,-5.44l-28.52 0zm207.47 -29.14l0 -0.2 30.78 0 0 143.65 -30.78 0 0 -87.01 -36.53 61.15 -7.59 0 -36.73 -61.36 0 87.22 -30.78 0 0 -143.65 30.78 0 0 0.2 0.41 -0.2 40.02 67.31 40.02 -67.31 0.41 0.2zm181.82 143.44l-32.83 0 -10.06 -27.09 -53.15 0 -10.06 27.09 -33.04 0 53.15 -143.65 33.04 0 52.94 143.65zm-69.36 -98.91l-16.01 42.69 31.81 0 -15.8 -42.69zm67.31 27.5c0,-13.41 3.32,-25.79 9.95,-37.15 6.64,-11.35 15.63,-20.35 26.99,-26.98 11.35,-6.63 23.74,-9.95 37.14,-9.95 13.68,0 26.33,3.56 37.96,10.67 11.63,7.11 20.66,16.48 27.09,28.11l-27.09 14.57c-3.83,-6.84 -9.1,-12.28 -15.8,-16.31 -6.7,-4.04 -14.09,-6.05 -22.16,-6.05 -7.8,0 -15.02,1.91 -21.65,5.74 -6.63,3.83 -11.87,9.06 -15.7,15.7 -3.83,6.63 -5.75,13.85 -5.75,21.65 0,7.8 1.95,15.02 5.85,21.65 3.9,6.63 9.13,11.9 15.7,15.8 6.57,3.9 13.75,5.85 21.55,5.85 8.07,0 15.53,-2.09 22.37,-6.26 6.84,-4.17 12.11,-9.75 15.8,-16.72l27.3 14.78c-6.43,11.76 -15.5,21.24 -27.19,28.42 -11.7,7.19 -24.45,10.78 -38.27,10.78 -13.41,0 -25.79,-3.35 -37.14,-10.06 -11.36,-6.7 -20.35,-15.74 -26.99,-27.09 -6.63,-11.35 -9.95,-23.74 -9.95,-37.14zm212.81 -14.57l32.01 -57.67 35.09 0 -51.71 93.78 0 49.87 -30.78 0 0 -49.87 -51.51 -93.78 34.89 0 32.02 57.67z"/>
   <path class="fil5" d="M3348.7 850.6l0 -57.6 24.49 0c6.16,0 10.63,0.52 13.42,1.56 2.8,1.03 5.03,2.87 6.7,5.51 1.68,2.65 2.52,5.67 2.52,9.07 0,4.33 -1.26,7.9 -3.79,10.71 -2.54,2.81 -6.31,4.59 -11.36,5.32 2.51,1.46 4.57,3.07 6.19,4.83 1.64,1.76 3.83,4.88 6.6,9.36l7.02 11.24 -13.9 0 -8.34 -12.57c-2.99,-4.46 -5.04,-7.28 -6.15,-8.45 -1.1,-1.15 -2.27,-1.96 -3.5,-2.39 -1.25,-0.43 -3.2,-0.64 -5.89,-0.64l-2.36 0 0 24.05 -11.66 0zm11.66 -33.22l8.61 0c5.57,0 9.05,-0.24 10.44,-0.71 1.38,-0.47 2.48,-1.29 3.26,-2.44 0.79,-1.15 1.18,-2.6 1.18,-4.33 0,-1.94 -0.52,-3.5 -1.56,-4.7 -1.03,-1.2 -2.5,-1.94 -4.37,-2.26 -0.95,-0.13 -3.78,-0.2 -8.49,-0.2l-9.08 0 0 14.64z"/>
   <path class="fil0 str0" d="M3374.61 761.72c33.12,0 59.97,26.9 59.97,60.07 0,33.17 -26.85,60.07 -59.97,60.07 -33.12,0 -59.97,-26.9 -59.97,-60.07 0,-33.18 26.85,-60.07 59.97,-60.07z"/>
  </g>
 </g>
</svg>
